<?xml version="1.0" encoding="UTF-8" standalone="no"?>
<svg
   xmlns:dc="http://purl.org/dc/elements/1.1/"
   xmlns:cc="http://creativecommons.org/ns#"
   xmlns:rdf="http://www.w3.org/1999/02/22-rdf-syntax-ns#"
   xmlns:svg="http://www.w3.org/2000/svg"
   xmlns="http://www.w3.org/2000/svg"
   viewBox="0 0 456.25 95.8125"
   height="95.8125"
   width="456.25"
   xml:space="preserve"
   version="1.1"
   id="svg2"><metadata
     id="metadata8"><rdf:RDF><cc:Work
         rdf:about=""><dc:format>image/svg+xml</dc:format><dc:type
           rdf:resource="http://purl.org/dc/dcmitype/StillImage" /></cc:Work></rdf:RDF></metadata><defs
     id="defs6"><clipPath
       id="clipPath18"
       clipPathUnits="userSpaceOnUse"><path
         id="path20"
         d="M 0,766.5 0,0 l 3650,0 0,766.5 -3650,0 z" /></clipPath></defs><g
     transform="matrix(1.25,0,0,-1.25,0,95.8125)"
     id="g10"><g
       transform="scale(0.1,0.1)"
       id="g12"><g
         id="g14"><g
           clip-path="url(#clipPath18)"
           id="g16"><path
             id="path22"
             style="fill:#100f0d;fill-opacity:1;fill-rule:nonzero;stroke:none"
             d="M 1495.9,74.6055 1669.32,0 l 284.99,114.465 0,452.746 -458.41,199.289 0,-176.516 284.98,-113.441 0,-363.102 -111.56,40.879 0,318.868 -173.42,-55.192 0,-343.3905 z m -305.26,412.8865 87.21,-120.594 -87.21,-41.902 0,162.496 z m 2076,-334.191 0,151.254 102.43,49.058 0,-200.312 -102.43,0 z M 3055.7,165.563 2844.75,229.949 3042.51,483.406 2795.05,586.629 2665.24,421.063 2877.2,355.656 2675.38,103.223 2925.88,0 3055.7,165.563 Z M 1190.64,0 l 198.77,79.7148 -198.77,74.6052 0,107.313 260.64,126.726 -148.07,198.27 -286,-137.973 0,-374.0505 L 1190.64,0 Z m 2347.8,511 -169.37,75.629 -200.8,-96.07 200.8,-75.625 -275.85,-133.883 0,-218.7072 L 3266.64,0 l 102.43,133.883 0,-73.5861 L 3542.5,0 3650,154.32 l -111.56,0 0,356.68 z m -1279.88,-357.699 0,378.14 -173.43,55.188 0,-526.3321 L 2257.54,0 l 112.58,132.859 0,-72.5621 L 2542.53,0 l 112.57,153.301 -111.56,0 0,378.14 -173.42,55.188 0,-433.328 -111.56,0 z M 396.539,433.328 396.539,55.1875 569.965,0 l 0,433.328 111.558,0 0,-378.1405 L 853.934,0 l 112.57,153.301 -111.559,0 0,373.027 -172.41,60.301 -112.57,-132.859 0,72.558 -172.41,60.301 -112.575,-132.859 0,72.558 L 112.574,586.629 0,433.328 l 111.559,0 0,-378.1405 L 284.98,0 l 0,433.328 111.559,0" /></g></g></g></g></svg>